<svg xmlns="http://www.w3.org/2000/svg" version="1.1" xmlns:xlink="http://www.w3.org/1999/xlink" xmlns:svgjs="http://svgjs.com/svgjs" width="50" height="50" x="0" y="0" viewBox="0 0 469.333 469.333" style="enable-background:new 0 0 50 50" xml:space="preserve" class="">
    <path d="M426.667,53.333H384V10.667h-42.667v106.667H320v-64H149.333V10.667h-42.667v106.667H85.333v-64H42.667    C19.136,53.333,0,72.491,0,96v320c0,23.531,19.136,42.667,42.667,42.667h384c23.531,0,42.667-19.136,42.667-42.667V96    C469.333,72.491,450.197,53.333,426.667,53.333z M213.333,360.832l-79.083-79.083l30.165-30.165l48.917,48.917l91.584-91.584    l30.165,30.165L213.333,360.832z" fill="#ffffff" data-original="#000000" class=""></path>
</svg>